<mxfile host="app.diagrams.net" agent="Mozilla/5.0 (Macintosh; Intel Mac OS X 10_15_7) AppleWebKit/537.36 (KHTML, like Gecko) Chrome/137.0.0.0 Safari/537.36" version="27.1.6">
  <diagram name="Page-1" id="C0LuoSXNytEvHIb3XUz0">
    <mxGraphModel dx="1426" dy="1193" grid="1" gridSize="10" guides="1" tooltips="1" connect="1" arrows="1" fold="1" page="1" pageScale="1" pageWidth="850" pageHeight="1100" math="0" shadow="0">
      <root>
        <mxCell id="0" />
        <mxCell id="1" parent="0" />
        <mxCell id="2" value="Users (CLI / Horizon)" style="whiteSpace=wrap;strokeWidth=2;" parent="1" vertex="1">
          <mxGeometry x="113" y="8" width="210" height="54" as="geometry" />
        </mxCell>
        <mxCell id="3" value="OpenStack Control-Plane (HA)" style="whiteSpace=wrap;strokeWidth=2;" parent="1" vertex="1">
          <mxGeometry x="88" y="135" width="260" height="78" as="geometry" />
        </mxCell>
        <mxCell id="4" value="Hypervisor 1&#xa;VMs" style="whiteSpace=wrap;strokeWidth=2;" parent="1" vertex="1">
          <mxGeometry x="353" y="437" width="191" height="54" as="geometry" />
        </mxCell>
        <mxCell id="5" value="Hypervisor 2&#xa;VMs" style="whiteSpace=wrap;strokeWidth=2;" parent="1" vertex="1">
          <mxGeometry x="123" y="564" width="191" height="54" as="geometry" />
        </mxCell>
        <mxCell id="6" value="Pure Storage&#xa;(iSCSI Backend)" style="whiteSpace=wrap;strokeWidth=2;" parent="1" vertex="1">
          <mxGeometry x="88" y="286" width="260" height="78" as="geometry" />
        </mxCell>
        <mxCell id="7" value="Manage" style="curved=1;startArrow=none;endArrow=block;exitX=0.5;exitY=1;entryX=0.5;entryY=0;" parent="1" source="2" target="3" edge="1">
          <mxGeometry relative="1" as="geometry">
            <Array as="points" />
          </mxGeometry>
        </mxCell>
        <mxCell id="8" value="Deploy / HA" style="curved=1;startArrow=none;endArrow=block;exitX=0.92;exitY=1;entryX=0.45;entryY=0;" parent="1" source="3" target="4" edge="1">
          <mxGeometry relative="1" as="geometry">
            <Array as="points">
              <mxPoint x="429" y="250" />
              <mxPoint x="429" y="401" />
            </Array>
          </mxGeometry>
        </mxCell>
        <mxCell id="9" value="Deploy / HA" style="curved=1;startArrow=none;endArrow=block;exitX=0.17;exitY=1;entryX=0.13;entryY=0;" parent="1" source="3" target="5" edge="1">
          <mxGeometry relative="1" as="geometry">
            <Array as="points">
              <mxPoint x="53" y="250" />
              <mxPoint x="53" y="528" />
            </Array>
          </mxGeometry>
        </mxCell>
        <mxCell id="10" value="Cinder API" style="curved=1;startArrow=none;endArrow=block;exitX=0.5;exitY=1;entryX=0.5;entryY=0;" parent="1" source="3" target="6" edge="1">
          <mxGeometry relative="1" as="geometry">
            <Array as="points" />
          </mxGeometry>
        </mxCell>
        <mxCell id="11" value="iSCSI" style="curved=1;startArrow=none;endArrow=block;exitX=1;exitY=1;entryX=0.54;entryY=0;" parent="1" source="6" target="4" edge="1">
          <mxGeometry relative="1" as="geometry">
            <Array as="points">
              <mxPoint x="468" y="401" />
            </Array>
          </mxGeometry>
        </mxCell>
        <mxCell id="12" value="iSCSI" style="curved=1;startArrow=none;endArrow=block;exitX=0.5;exitY=1;entryX=0.5;entryY=0;" parent="1" source="6" target="5" edge="1">
          <mxGeometry relative="1" as="geometry">
            <Array as="points" />
          </mxGeometry>
        </mxCell>
        <mxCell id="13" value="Live Migration / Fail-over" style="curved=1;startArrow=none;endArrow=none;exitX=0.5;exitY=1;entryX=1;entryY=0.01;" parent="1" source="4" target="5" edge="1">
          <mxGeometry relative="1" as="geometry">
            <Array as="points">
              <mxPoint x="448" y="528" />
            </Array>
          </mxGeometry>
        </mxCell>
      </root>
    </mxGraphModel>
  </diagram>
</mxfile>
